<svg xmlns="http://www.w3.org/2000/svg" viewBox="0 0 48 48" fill="none" role="img" aria-hidden="true">
  <path d="M10.2 16.2c0-4.4 3.8-7.8 8.5-7.8 2.4 0 4.6 1 6.1 2.6 1.5-1.6 3.7-2.6 6.1-2.6 4.7 0 8.5 3.4 8.5 7.8 0 1.3-.3 2.6-.9 3.7h3.6c1.8 0 3.2 1.6 3 3.4l-2.6 21.2c-.2 1.8-1.8 3.2-3.6 3.2H13.7c-1.8 0-3.4-1.4-3.6-3.2L7.5 23.3c-.2-1.8 1.2-3.4 3-3.4h3.6c-.6-1.1-.9-2.4-.9-3.7z" fill="#12D1B0"/>
  <path d="M16.2 10.8c-2.8 0-5.1 2-5.1 4.5 0 .9.2 1.7.6 2.5h9c.4-.8.6-1.6.6-2.5 0-2.5-2.3-4.5-5.1-4.5z" fill="none" stroke="#fff" stroke-width="2.4"/>
  <path d="M28.6 10.8c-2.8 0-5.1 2-5.1 4.5 0 .9.2 1.7.6 2.5h9c.4-.8.6-1.6.6-2.5 0-2.5-2.3-4.5-5.1-4.5z" fill="none" stroke="#fff" stroke-width="2.4"/>
  <path d="M14.2 27.2h5.2M14.2 30.2h4M14.2 33.2h3" stroke="#fff" stroke-width="1.8" stroke-linecap="round"/>
  <path d="M22.4 25.6h13.2l1.9 9.2H21.2l1.2-9.2z" fill="#fff"/>
  <circle cx="25" cy="37.6" r="1.6" fill="#fff"/>
  <circle cx="33.6" cy="37.6" r="1.6" fill="#fff"/>
</svg>
